# xmcd CD database file
#
# Track frame offsets:
#	150
#	15168
#	27900
#	43393
#	59820
#	73906
#	87852
#	102584
#	116488
#	131269
#	143528
#	156029
#	170135
#	182593
#	196642
#	210270
#	224734
#	240071
#	255609
#	266951
#	280722
#	295771
#
# Disc length: 4158 seconds
#
# Revision: 2
# Processed by: cddbd v1.5.2PL0 Copyright (c) Steve Scherf et al.
# Submitted via: CDex 1.73
#
DISCID=40103c16
DTITLE=Various Artist - Jazz In The Charts - CD022/100 (1935)
DYEAR=1935
DGENRE=Jazz
TTITLE0=Truckin' - Fats Waller and His Rhythm
TTITLE1=12Th Street Rag - Fats Waller and His Rhythm
TTITLE2=Body And Soul - Benny Goodman Trio
TTITLE3=Sometime's I'm Happy - Benny Goodman and His Orchestra
TTITLE4=King Porter Stomp - Benny Goodman and His Orchestra
TTITLE5=Accent On Youth - Duke Ellington and His Orchestra
TTITLE6=Rhythm And Romance - Fats Waller and His Rhythm
TTITLE7=You Are My Lucky Star (voc Bob Eberle) - Dorsey Brothers Orchestra
TTITLE8=I've Got A Feelin' You're Fooling (voc Bob Eberle) - Dorsey Brothers Orchestra
TTITLE9=Truckin' (voc Henry Red Allen) - Mills Blue Rhythm Band
TTITLE10=Dinah Lou (voc Chuck Richards) - Mills Blue Rhythm Band
TTITLE11=Cotton (voc Ivie Anderson) - Duke Ellington and His Orchestra
TTITLE12=After You've Gone - Benny Goodman Trio
TTITLE13=Sweet Lorraine - Teddy Wilson and His Orchestra
TTITLE14=Ride, Red, Ride (voc Lucky Millinder) - Mills Blue Rhythm Band
TTITLE15=I'm In The Mood For Love - Louis Armstrong and His Orchestra
TTITLE16=The Gentleman Obviously Doesn't Believe In Love - Dorsey Brothers Orchestra
TTITLE17=On Treasure Island (voc Edythe Wright) - Tommy Dorsey and His Orchestra
TTITLE18=Jingle Bells - Benny Goodman and His Orchestra 
TTITLE19=You Are My Lucky Star - Louis Armstrong and His Orchestra
TTITLE20=Take Me Back To My Boots And Saddle (voc Gene Autry) - Tommy Dorsey and His Orchestra
TTITLE21=You Are My Lucky Star ( voc Eleanor Powell) - Tommy Dorsey and His Orchestra
EXTD=YEAR: 1935
EXTT0=
EXTT1=
EXTT2=
EXTT3=
EXTT4=
EXTT5=
EXTT6=
EXTT7=
EXTT8=
EXTT9=
EXTT10=
EXTT11=
EXTT12=
EXTT13=
EXTT14=
EXTT15=
EXTT16=
EXTT17=
EXTT18=
EXTT19=
EXTT20=
EXTT21=
PLAYORDER=
